<svg width="512" height="512" viewBox="0 0 512 512" fill="none" xmlns="http://www.w3.org/2000/svg">
<path d="M109 77H403V434H109V77Z" fill="#8E837F"/>
<path d="M256 0C114.6 0 0 114.6 0 256C0 397.4 114.6 512 256 512C397.4 512 512 397.4 512 256C512 114.6 397.4 0 256 0ZM358.6 278.6L246.6 390.6C234.1 403.1 213.85 403.1 201.35 390.6C188.85 378.1 188.85 357.85 201.35 345.35L290.8 256L201.4 166.6C188.9 154.1 188.9 133.85 201.4 121.35C213.9 108.85 234.15 108.85 246.65 121.35L358.65 233.35C364.9 239.6 368 247.8 368 256C368 264.2 364.9 272.4 358.6 278.6Z" fill="#392D27"/>
</svg>
