<svg width="320" height="512" viewBox="0 0 320 512" fill="none" xmlns="http://www.w3.org/2000/svg">
<path d="M31.1049 78.048C13.4321 78.048 0 91.3348 0 107.718V404.33C0 420.713 14.3322 434 32.005 434C49.6778 433.23 64.01 420.713 64.01 403.56V107.718C64.01 91.3348 49.6778 78.048 31.1049 78.048ZM267.542 84.8908L75.5118 232.408C67.8306 239.168 64.01 247.605 64.01 256.043C64.01 264.475 67.8306 272.899 75.4518 278.87L267.482 426.388C288.115 442.261 320 428.938 320 403.56V106.949C319.15 82.3409 288.145 69.0078 267.542 84.8908Z" fill="#BABABA"/>
</svg>
