<svg width="521" height="440" viewBox="0 0 521 440" fill="none" xmlns="http://www.w3.org/2000/svg">
<path d="M169 58L188 58L188 20L169 20L169 58ZM91.5 384C81.0066 384 72.5 392.507 72.5 403C72.5 413.493 81.0066 422 91.5 422V384ZM169 20L53.0001 19.9998L53 57.9998L169 58L169 20ZM0 72.9998V278.876H38V72.9998H0ZM53 331.876H169V293.876H53V331.876ZM91.5 422H189.821V384H91.5V422ZM203.5 72.9998V367.5H241.5V72.9998H203.5ZM256.5 420.5H439V382.5H256.5V420.5ZM492 367.5V72.9998H454V367.5H492ZM256.5 57.9998H347.75V19.9998H256.5V57.9998ZM347.75 57.9998H439V19.9998H347.75V57.9998ZM492 72.9998C492 43.7287 468.271 19.9998 439 19.9998V57.9998C447.284 57.9998 454 64.7155 454 72.9998H492ZM439 420.5C468.271 420.5 492 396.771 492 367.5H454C454 375.784 447.284 382.5 439 382.5V420.5ZM203.5 367.5C203.5 396.771 227.229 420.5 256.5 420.5V382.5C248.216 382.5 241.5 375.784 241.5 367.5H203.5ZM0 278.876C0 308.147 23.7289 331.876 53 331.876V293.876C44.7157 293.876 38 287.16 38 278.876H0ZM241.5 72.9998C241.5 64.7155 248.216 57.9998 256.5 57.9998V19.9998C227.229 19.9998 203.5 43.7287 203.5 72.9998H241.5ZM53.0001 19.9998C23.729 19.9998 0 43.7287 0 72.9998H38C38 64.7155 44.7157 57.9998 53 57.9998L53.0001 19.9998Z" fill="#BABABA"/>
<path d="M190 383.295V56.7048C190 35.881 208.96 19 232.347 19H459.653C483.04 19 502 35.881 502 56.7048V383.295C502 404.119 483.04 421 459.653 421H232.347C208.96 421 190 404.119 190 383.295Z" stroke="#181818" stroke-width="38" stroke-linejoin="round"/>
<path d="M222.5 367.5V72.9998C222.5 54.2221 237.722 38.9998 256.5 38.9998H347.75H439C457.778 38.9998 473 54.2221 473 72.9998V367.5C473 386.277 457.778 401.5 439 401.5H256.5C237.722 401.5 222.5 386.277 222.5 367.5Z" stroke="#BABABA" stroke-width="38" stroke-linejoin="round"/>
<path d="M347.5 161C366.554 161 382 145.554 382 126.5C382 107.446 366.554 92 347.5 92C328.446 92 313 107.446 313 126.5C313 145.554 328.446 161 347.5 161Z" fill="#BABABA"/>
<path d="M394.5 278C394.5 304.234 373.234 325.5 347 325.5C320.766 325.5 299.5 304.234 299.5 278C299.5 251.766 320.766 230.5 347 230.5C373.234 230.5 394.5 251.766 394.5 278Z" stroke="#BABABA" stroke-width="49"/>
</svg>
