<svg width="320" height="512" viewBox="0 0 320 512" fill="none" xmlns="http://www.w3.org/2000/svg">
<path d="M286.92 433.179C304.578 433.179 318 419.892 318 403.509V107.67C318 91.2866 303.679 78 286.02 78C268.361 78 254.94 91.2866 254.94 106.836V403.444C254.94 420.662 270.13 433.179 286.92 433.179ZM52.477 427.152L244.356 279.636C251.977 273.669 255.779 265.237 255.779 256.809C255.779 248.377 251.973 239.952 244.356 233.981L52.477 86.4652C31.86 68.9599 0 82.2929 0 107.67V404.278C0 429.655 31.86 443.007 52.477 427.152Z" fill="#BABABA"/>
</svg>
