<svg width="512" height="512" viewBox="0 0 512 512" fill="none" xmlns="http://www.w3.org/2000/svg">
<path d="M220.942 274.554C211.811 265.423 197.012 265.423 187.881 274.552L130.862 331.58L108.905 309.622C104.431 305.148 98.4519 302.78 92.3745 302.78C89.3614 302.78 86.3271 303.356 83.4265 304.555C74.6829 308.173 69 316.695 69 326.148V424.834C69.0083 435.184 76.8597 443 86.5382 443H185.88C195.332 443 203.871 437.305 207.472 428.573C211.102 419.83 209.093 409.786 202.404 403.102L180.447 381.144L237.466 324.116C246.597 314.993 246.597 300.193 237.468 291.062L220.942 274.554ZM424.812 69H325.47C316.018 69 307.479 74.6955 303.878 83.4268C300.248 92.1705 302.257 102.214 308.946 108.898L330.903 130.856L273.884 187.884C264.753 197.015 264.753 211.814 273.884 220.945L290.407 237.468C299.537 246.599 314.336 246.599 323.467 237.468L380.486 180.44L402.444 202.398C409.132 209.075 419.149 211.047 427.915 207.465C437.302 203.845 443 195.298 443 185.218V85.8738C443 76.8452 435.184 69 424.812 69Z" fill="#BABABA"/>
</svg>
