<svg width="334" height="315" viewBox="0 0 334 315" fill="none" xmlns="http://www.w3.org/2000/svg">
<path d="M47.6881 225.496L150 108.69L207 168.69L88.6999 267.485C76.7796 277.44 59.176 276.422 48.4831 265.159C38.0114 254.129 37.6668 236.937 47.6881 225.496Z" stroke="#BABABA" stroke-width="25" stroke-linecap="round"/>
<path d="M261.637 143.525C242.05 164.76 229.797 167.42 221.34 165.983C216.496 165.16 211.307 162.775 205.229 158.62C199.095 154.426 192.831 148.988 185.564 142.607C170.738 129.588 158.793 118.498 153.459 106.769C151.003 101.369 150.126 96.1276 151.068 90.5413C152.033 84.8172 155.081 77.73 162.149 69.0659C189.024 36.1243 229.848 40.8751 252.646 57.1677C263.003 64.5691 272.325 78.9358 275.312 95.5146C278.225 111.68 274.984 129.054 261.637 143.525Z" stroke="#BABABA" stroke-width="25"/>
</svg>
