<svg width="512" height="512" viewBox="0 0 512 512" fill="none" xmlns="http://www.w3.org/2000/svg">
<g clip-path="url(#clip0_124_91)">
<path d="M109 77H403V434H109V77Z" fill="#928F8E"/>
<path d="M512.001 255.999C512.001 114.6 397.401 -0.000488281 256.001 -0.000488281C114.601 -0.000488281 0.00100708 114.6 0.00100708 255.999C0.00100708 397.399 114.601 511.999 256.001 511.999C397.401 511.999 512.001 397.399 512.001 255.999ZM233.401 358.599L121.401 246.6C108.901 234.1 108.901 213.85 121.401 201.35C133.901 188.85 154.151 188.85 166.651 201.35L256.001 290.799L345.401 201.399C357.901 188.899 378.151 188.899 390.651 201.399C403.151 213.899 403.151 234.149 390.651 246.649L278.651 358.649C272.401 364.899 264.201 367.999 256.001 367.999C247.801 367.999 239.601 364.899 233.401 358.599Z" fill="#121212"/>
</g>
<defs>
<clipPath id="clip0_124_91">
<rect width="512" height="512" fill="white"/>
</clipPath>
</defs>
</svg>
