<svg width="512" height="512" viewBox="0 0 512 512" fill="none" xmlns="http://www.w3.org/2000/svg">
<rect x="109" y="77" width="294" height="357" fill="#8E837F"/>
<path d="M256 0C114.6 0 0 114.6 0 256C0 397.4 114.6 512 256 512C397.4 512 512 397.4 512 256C512 114.6 397.4 0 256 0ZM310.6 345.4C323.1 357.9 323.1 378.15 310.6 390.65C298.1 403.15 277.85 403.15 265.35 390.65L153.35 278.65C147.1 272.4 144 264.2 144 256C144 247.8 147.125 239.62 153.375 233.38L265.375 121.38C277.875 108.88 298.125 108.88 310.625 121.38C323.125 133.88 323.125 154.13 310.625 166.63L221.3 256L310.6 345.4Z" fill="#392D27"/>
</svg>
