<svg width="358" height="336" viewBox="0 0 358 336" fill="none" xmlns="http://www.w3.org/2000/svg">
<path d="M211.104 51H223.75V29.3705L204.901 39.9788L211.104 51ZM211.104 284.122L205.726 295.568L223.75 304.035V284.122H211.104ZM86.8843 129.487L78.8759 119.698L86.8843 129.487ZM158.284 80.7264L152.081 69.7052L158.284 80.7264ZM198.457 51V284.122H223.75V51H198.457ZM91.3683 142.158L94.8927 139.275L78.8759 119.698L75.3515 122.582L91.3683 142.158ZM164.487 91.7476L217.306 62.0212L204.901 39.9788L152.081 69.7052L164.487 91.7476ZM216.481 272.675L170.955 251.289L160.201 274.182L205.726 295.568L216.481 272.675ZM170.955 251.289C142.039 237.705 115.071 220.31 90.7708 199.569L74.35 218.808C100.367 241.014 129.241 259.638 160.201 274.182L170.955 251.289ZM94.8927 139.275C116.675 121.453 139.96 105.551 164.487 91.7476L152.081 69.7052C126.282 84.2248 101.789 100.952 78.8759 119.698L94.8927 139.275ZM75.3515 122.582C45.0989 147.334 44.6191 193.431 74.35 218.808L90.7708 199.569C73.0325 184.429 73.3187 156.926 91.3683 142.158L75.3515 122.582Z" fill="#BABABA"/>
<path d="M255.789 105.802C287.265 125.194 331.332 178.395 255.789 236.064" stroke="#BABABA" stroke-width="25.2935" stroke-linecap="round"/>
</svg>
